<?xml version="1.0" encoding="utf-8"?>
<!-- Generator: Adobe Illustrator 23.0.1, SVG Export Plug-In . SVG Version: 6.00 Build 0)  -->
<svg version="1.1" id="Layer_1" xmlns="http://www.w3.org/2000/svg" xmlns:xlink="http://www.w3.org/1999/xlink" x="0px" y="0px"
	 viewBox="0 0 432 288" style="enable-background:new 0 0 432 288;" xml:space="preserve">
<g>
	<path d="M64.91,206.27c7.37-5.37,13.23-11.71,22.54-11.7c4.83,0.01,8.09-2.87,10.77-6.52c5.46-7.44,11.06-14.78,16.26-22.4
		c5.33-7.82,10.27-15.91,15.35-23.9c3.56-5.61,7.32-11.12,10.42-16.97c1.02-1.92,0.65-4.84,0.25-7.19
		c-1.54-9.02-2.98-18.06-6.35-26.69c-1.1-2.82-2.46-4.42-5.25-5.36c-6.21-2.08-12.52-4.03-18.46-6.75
		c-4.93-2.25-9.72-5.11-13.99-8.45c-6.49-5.07-5.38-12.86-3.22-20.05c3.54-11.79,12.59-15.3,23.58-15.49
		c8.15-0.14,16.3,0.23,24.45,0.5c3.01,0.1,5.39-0.4,8.06-2.36c8.49-6.22,18.38-7.83,28.8-8.56c13.45-0.94,24.42,3.71,34.97,11.31
		c6.81,4.91,14.88,6.82,23.41,6.99c6.94,0.14,13.96,0.42,20.78,1.62c7.61,1.33,9.94,8.78,5.69,15.19
		c-6.74,10.16-16.68,14.84-28.11,17.18c-6.87,1.4-13.76,2.72-20.76,4.1c0.5,0.46,1.22,1.43,2.18,1.94
		c7.27,3.91,14.3,8.46,21.95,11.43c15.33,5.94,31.7,6.91,47.91,8.4c8.2,0.75,16.45,1.14,24.61,2.27c7.77,1.07,15.4,3.15,23.17,4.25
		c4.33,0.61,8.71,0.35,12.55,3.05c2.7,1.9,5.54,3.66,8.48,5.14c1.11,0.56,2.72,0.27,4.07,0.13c0.58-0.06,1.21-0.63,1.64-1.12
		c7.15-8.21,16.1-7.96,25.7-5.92c5.18,1.1,10.54,1.62,15.83,1.77c2.68,0.08,5.39-1.3,8.11-1.91c2.46-0.56,4.97-1.37,7.44-1.35
		c3.91,0.04,5.77,3.41,3.73,6.71c-2.7,4.38-6.55,7.38-11.18,9.94c-8.85,4.9-18.17,2.55-27.33,3.1c-2.32,0.14-4.59,1.1-7.3,1.78
		c0.44,1.82,0.63,3.82,1.38,5.59c4.3,10.12,0.54,18.67-4.65,27.22c-6.33,10.42-15.36,18.14-24.74,25.5
		c-6.66,5.23-13.71,9.96-20.55,14.96c-3.43,2.51-6.8,5.12-10.68,8.06c10.36,0.12,19.92-1.27,29.22-5
		c10.59-4.24,21.31-8.14,32.06-11.96c3.92-1.39,7.59-0.57,10.78,2.52c3.51,3.4,3.36,8.52-0.64,11.33
		c-11.6,8.13-24.76,12.81-38.14,16.81c-7.64,2.29-15.55,3.75-23.43,5.12c-3.16,0.55-6.53-0.24-9.81-0.27
		c-11.97-0.11-23.93-0.2-35.9-0.22c-26.8-0.03-53.59,0-80.39-0.02c-16.73-0.01-33.46-0.02-50.19-0.13
		c-7.96-0.05-15.92-0.58-23.88-0.45c-11.62,0.2-23.26,1.43-34.85,1.03c-8.41-0.28-16.92-1.83-25.07-3.99
		c-10.6-2.81-20.94-6.64-31.26-10.37c-3.1-1.12-5.95-3.15-8.61-5.18c-2.96-2.26-4.16-7.68-2.7-10.2c1.78-3.06,7.28-5.28,11.06-4.1
		c8.06,2.52,16.05,5.27,24.09,7.88C61.05,205.27,63.38,205.84,64.91,206.27z M415.64,113.84c-6.84,5.76-14.84,3.35-22.34,3.16
		c-5.88-0.15-11.72-1.71-17.6-2.48c-5.01-0.66-9.27,1.23-12.4,4.97c-4.99,5.97-5.1,6.48-11.14,2.45
		c-6.95-4.64-14.48-6.71-22.61-7.79c-10.95-1.45-21.79-3.78-32.76-5.11c-8.88-1.08-17.94-0.71-26.79-1.93
		c-10.35-1.42-20.83-2.98-30.76-6.07c-12.1-3.76-22.97-10.25-31.34-20.24c-0.7-0.84-2.11-1.05-3.07-1.72
		c-3.57-2.47-7.31-4.77-10.56-7.61c-2.23-1.95-1.11-4.01,1.44-5.73c0.87,1.14,1.53,2.11,2.3,2.97c2.76,3.12,6.15,5.58,10.37,5.4
		c6.62-0.28,13.35-0.57,19.77-2.02c10.64-2.41,21.33-5.04,29.36-13.48c3.65-3.83,2.99-8.46-1.94-10.09
		c-1.88-0.62-3.89-0.98-5.87-1.13c-9.44-0.73-18.92-1.11-28.34-2.09c-5.56-0.58-10.19-3.59-14.79-6.82
		c-4.57-3.2-9.64-6.02-14.9-7.81c-7.66-2.62-15.7-1.12-23.54-0.07c-7.72,1.04-14.7,3.77-20.14,9.79c-0.84,0.92-2.95,0.95-4.47,0.93
		c-1.58-0.02-3.16-0.91-4.73-0.87c-8.57,0.19-17.16,0.27-25.7,0.97c-4.72,0.39-9.39,1.84-12.18,5.87c2.86,1.81,5.39,3.41,8.76,5.54
		c-2.54,1.03-4.05,1.93-5.67,2.23c-1.76,0.32-3.62,0.07-5.27,0.07c-2.51,5.61,0.05,9.96,3.98,12.9c3.66,2.73,8.34,4.12,12.61,6.01
		c0.77,0.34,1.91,0.65,2.57,0.34c9.34-4.47,18.52-2.25,27.79,0.33c2.3,0.64,4.97,0.8,7.29,0.33c6.66-1.35,13.15-1.02,19.31,1.69
		c1.68,0.74,3.79,3.05,3.73,4.57c-0.07,1.82-2,3.85-3.6,5.23c-0.86,0.74-2.72,0.31-4.15,0.4c-0.7,3.65-2.17,4.18-5.31,1.67
		c-9.83-7.87-21.12-11.84-33.6-12.53c-2.13-0.12-4.29,0.37-6.44,0.58c-0.01,0.37-0.02,0.74-0.03,1.12c4.45,1.16,8.9,2.36,13.37,3.46
		c3.76,0.93,4.45,2.28,3.08,5.91c-0.28,0.74-0.12,1.74,0.07,2.56c2.42,10.39,4.84,20.79,7.36,31.16c1.08,4.45-1.99,7.09-3.97,10.34
		c-5.62,9.22-10.83,18.69-16.55,27.85c-3.96,6.34-8.58,12.27-12.74,18.49c-3.41,5.09-6.28,10.57-9.96,15.44
		c-1.84,2.44-4.73,4.49-7.58,5.65c-3.78,1.54-8.07,1.79-11.98,3.06c-3.92,1.28-7.82,2.93-10.34,6.96c2.52,0.77,4.53,1.39,5.7,1.74
		c3.07-2,5.56-3.62,8.05-5.24c0.33,0.41,0.66,0.83,0.99,1.24c-1.06,1.4-2.12,2.79-3.58,4.72c3.49,0,6.39-0.02,9.29,0
		c7.91,0.07,15.83,0.29,23.74,0.12c1.33-0.03,3.09-1.36,3.87-2.58c3.53-5.51,6.13-11.75,10.29-16.69
		c7.1-8.42,15.06-16.13,22.81-23.99c2.78-2.82,5.99-5.22,9-7.81c1.76-1.52,3.78-2.83,5.2-4.62c3.42-4.3,5.97-4.53,9.59-0.49
		c0.52,0.58,1.23,1.1,1.95,1.39c4.22,1.72,8.34,3.85,12.73,4.93c9.86,2.42,19.86,4.29,29.79,6.41c5.86,1.25,11.67,2.91,17.59,3.77
		c7.62,1.11,15.33,1.65,23.01,2.38c5.47,0.52,10.94,1.08,16.42,1.34c1.4,0.07,3.43-0.5,4.2-1.51c5.39-7.13,10.61-14.38,15.65-21.76
		c1.01-1.48,1.37-3.61,3.6-2.53c2.48,1.2,1.22,3.2,0.28,4.81c-3.7,6.35-7.62,12.56-11.16,18.99c-3.85,7.01-7.38,14.2-11.03,21.33
		c-1.27,2.49-2.2,4.66-5.8,5.29c-4.68,0.81-9.25,2.8-13.58,4.86c-2.1,1-3.55,3.35-5.06,4.85c6.99,5.21,9.33-4.54,15.49-3.6
		c-1.28,1.65-2.2,2.83-3.76,4.84c3.39,0.25,5.96,0.58,8.54,0.6c5.65,0.06,11.38-0.65,16.92,0.1c5.47,0.74,9.52-0.97,13.35-4.37
		c1.1-0.98,2.32-1.85,3.6-2.57c5.47-3.1,11.13-5.89,16.44-9.24c4.76-3,9.01-6.82,13.74-9.87c11.52-7.42,21.85-15.65,27.81-28.71
		c3.7-8.09,5.91-15.44,0.45-23.39c-1.51-2.2-1.35-4.54,0.95-5.99c2.34-1.48,4.92-3.15,7.56-3.49c5.9-0.75,11.96-1.32,17.86-0.85
		C404.53,123.75,410.3,119.65,415.64,113.84z M128.31,211.58c41.51,0,81.98,0,122.91,0c-1.09-6.97,3.26-10.5,7.9-12.8
		c4.5-2.23,9.79-2.84,15.11-4.26c1.64-3.64,3.6-7.97,5.64-12.47c-11.56-1.34-22.63-2.24-33.56-4c-11.31-1.81-22.4-5.14-33.74-6.54
		c-13.38-1.66-25.87-5.92-38.47-10.2c-1.07-0.36-2.95,0.33-3.89,1.17c-1.77,1.59-2.94,3.83-4.68,5.45
		c-3.32,3.09-7.14,5.67-10.26,8.94c-7.08,7.42-14.09,14.93-20.64,22.81C132,202.84,130.65,207.05,128.31,211.58z M383.6,202.72
		c-0.32-0.68-0.64-1.36-0.96-2.04c-2.55,0.59-5.23,0.87-7.64,1.82c-10.45,4.14-20.69,8.87-31.29,12.59c-6,2.1-12.51,3.55-18.84,3.74
		c-14.4,0.44-28.83-0.04-43.25-0.23c-9.25-0.12-18.49-0.54-27.74-0.55c-7.3,0-14.61,0.61-21.91,0.62
		c-7.07,0.02-14.13-0.56-21.2-0.54c-9.34,0.02-18.69,0.51-28.03,0.55c-12.96,0.04-25.91-0.16-38.87-0.24
		c-13.37-0.08-26.75-0.07-40.12-0.22c-7.87-0.09-15.78-0.06-23.6-0.81c-4.6-0.44-9.13-2.11-13.6-3.51
		c-10.85-3.4-21.63-7.02-32.49-10.4c-1.24-0.39-2.77,0.17-4.16,0.29c0.76,1.24,1.23,3.09,2.33,3.63c3.7,1.79,7.6,3.19,11.47,4.6
		c4.03,1.47,8.07,2.93,12.19,4.13c7.32,2.13,14.59,4.86,22.08,5.86c9.27,1.24,18.73,1.05,28.11,1.34
		c6.78,0.21,13.58,0.33,20.36,0.25c10.76-0.12,21.51-0.61,32.27-0.62c12.57-0.02,25.13,0.39,37.7,0.43
		c7.24,0.02,14.49-0.52,21.73-0.47c19.16,0.14,38.32,0.58,57.47,0.64c8.54,0.03,17.08-0.69,25.62-0.76c3.3-0.03,6.61,1.14,9.91,1.11
		c5.92-0.05,11.87-0.28,17.73-1.04c5.89-0.77,11.87-1.74,17.49-3.59c8.51-2.8,16.83-6.25,25.06-9.81
		C375.69,207.66,379.56,205,383.6,202.72z M163.72,83.47c0.22,0.33,0.43,0.65,0.65,0.98c2.36-0.93,4.72-1.85,7.08-2.78
		c-0.04-0.54-0.09-1.09-0.13-1.63c-4.76-0.54-9.52-1.08-14.28-1.62c-0.05,0.55-0.1,1.1-0.15,1.66c2.92,0.16,5.85,0.33,9.17,0.52
		C164.99,81.91,164.35,82.69,163.72,83.47z"/>
	<path d="M298.51,248.21c0.06-7.85,5.37-14.03,12.53-13.73c9.41,0.4,15.57,4.63,16,13.52c0.52,10.81-4.34,14.8-14.18,15.4
		C304.46,263.92,298.44,257.15,298.51,248.21z M313.35,256.27c3.89,0.06,6.93-2.9,6.87-6.7c-0.07-4.28-3.54-7.4-8.32-7.45
		c-4.06-0.04-6.62,2.4-6.64,6.35C305.24,253.25,308.28,256.19,313.35,256.27z"/>
	<path d="M107.05,234.94c9.72-0.06,15.2,7.25,14.97,15.25c-0.22,7.56-7.22,13.88-14.76,13.54c-7.54-0.34-14.38-7.54-14.14-14.87
		C93.4,240.29,98.98,234.71,107.05,234.94z M114.53,249.26c0.07-4.26-2.24-7.01-5.91-7.05c-5.76-0.07-7.84,1.63-8.01,6.54
		c-0.16,4.72,2.17,7.43,6.38,7.45C111.67,256.21,114.46,253.65,114.53,249.26z"/>
	<path d="M157.79,54.88c0.93-1.1,1.6-1.89,2.26-2.68c1.96-2.35,1.97-5.32-0.2-6.8c-1.71-1.17-4.92-1.25-7-0.5
		c-2.7,0.97-2.47,3.97,0.11,5.64c1.33,0.86,2.81,1.5,5.09,2.69c-1.65,0.95-2.74,2.09-3.84,2.11c-3.92,0.07-5.87-2.58-7.24-5.89
		c-1.31-3.16,0.53-5.49,2.55-6.98c2.97-2.19,6.5-4.04,10.42-1.96c4.03,2.15,6.04,5.57,5.87,10.19
		C165.62,55.62,163.09,57.12,157.79,54.88z"/>
	<path d="M158.12,47.43c-1.45,1.08-2.48,2.37-3.15,2.21c-0.96-0.23-1.67-1.53-2.48-2.37c0.81-0.72,1.59-1.97,2.43-2.02
		C155.76,45.21,156.66,46.37,158.12,47.43z"/>
	<path d="M312.67,253.33c-1.5-2.2-3.12-3.56-2.91-4.52c0.28-1.26,1.99-2.21,3.09-3.29c1.01,1.03,2.81,2.05,2.83,3.08
		C315.69,249.85,314.17,251.12,312.67,253.33z"/>
	<path d="M107.34,244.8c1.46,1.85,2.95,2.92,2.88,3.87c-0.08,1.05-1.6,1.99-2.49,2.98c-0.97-0.88-2.57-1.66-2.74-2.68
		C104.82,248.01,106.14,246.79,107.34,244.8z"/>
</g>
</svg>
